PathFileType	4	(X/Y/Z)	E:\Qualisys_Data\Carbon_Farble_Plate\Data\Amateur_Runner\S14\T2\S14T2V21_c3d.trc
DataRate	CameraRate	NumFrames	NumMarkers	Units	OrigDataRate	OrigDataStartFrame	OrigNumFrames
200.000000	200.000000	4	39	mm	200.000000	75	303
Frame#	Time	LSHO			RSHO			LICST			RICST			LASIS			LHEEL			RASIS			LTROC			RTROC			SACR			LTH1			LSK4			LTH2			LTH3			RHM5			LSK2			LTH4			RTH1			LTOE			RTH2			RTH3			RTH4			LLEP			RLEP			LSK1			LSK3			RSK1			LHM5			RSK2			LFT1			RSK3			RSK4			LLME			RLME			RTOE			RHEEL			RFT1			RFT2			LFT2			
		X1	Y1	Z1	X2	Y2	Z2	X3	Y3	Z3	X4	Y4	Z4	X5	Y5	Z5	X6	Y6	Z6	X7	Y7	Z7	X8	Y8	Z8	X9	Y9	Z9	X10	Y10	Z10	X11	Y11	Z11	X12	Y12	Z12	X13	Y13	Z13	X14	Y14	Z14	X15	Y15	Z15	X16	Y16	Z16	X17	Y17	Z17	X18	Y18	Z18	X19	Y19	Z19	X20	Y20	Z20	X21	Y21	Z21	X22	Y22	Z22	X23	Y23	Z23	X24	Y24	Z24	X25	Y25	Z25	X26	Y26	Z26	X27	Y27	Z27	X28	Y28	Z28	X29	Y29	Z29	X30	Y30	Z30	X31	Y31	Z31	X32	Y32	Z32	X33	Y33	Z33	X34	Y34	Z34	X35	Y35	Z35	X36	Y36	Z36	X37	Y37	Z37	X38	Y38	Z38	X39	Y39	Z39	

76	0.375	-1186.26806640625	1473.8720703125	-504.9837341308594	-1076.664306640625	1463.291748046875	-235.5104522705078	-1191.567626953125	1015.778076171875	-478.9549865722656	-1142.224365234375	1020.431274414062	-211.2473754882812	-1148.359619140625	964.6272583007812	-456.8468322753906	-1013.913940429688	104.8706130981445	-377.677978515625	-1124.57275390625	973.3236083984376	-229.3903045654297	-1271.054565429688	896.8120727539062	-496.3110046386719	-1282.361206054688	923.1190185546876	-161.7079315185547	-1306.73046875	1026.958984375	-338.6544494628906	-1122.482788085938	689.9425048828125	-510.5956726074219	-1072.802734375	321.6270751953125	-455.0764770507812	-1185.390502929688	662.0909423828125	-471.0594482421875	-1068.404296875	608.7494506835938	-485.9318237304688	-1772.631225585938	241.3549652099609	-173.9665374755859	-1095.024169921875	418.2483520507812	-469.2249755859375	-1137.8359375	578.7155151367188	-456.0928344726562	-1247.582641601562	678.3256225585938	-180.6992797851562	-778.9156494140625	197.8080596923828	-444.32080078125	-1315.977416992188	711.5502319335938	-164.1916809082031	-1289.656982421875	589.3062133789062	-203.8585357666016	-1364.8369140625	623.8309936523438	-183.9196624755859	-1073.372680664062	525.47705078125	-474.3909301757812	-1381.545166015625	550.5729370117188	-191.0943145751953	-1015.102416992188	436.0928955078125	-476.4439697265625	-993.6431884765624	337.2080078125	-467.4838562011719	-1474.158813476562	465.5055541992188	-188.2903442382812	-839.4985961914062	144.5688171386719	-494.9219970703125	-1518.611450195312	540.0924682617188	-187.662109375	-988.8065795898438	85.1102294921875	-358.4098510742188	-1565.18896484375	418.0567626953125	-196.4016418457031	-1600.48388671875	489.5994873046875	-199.2152862548828	-979.7572631835938	153.1723480224609	-446.3075866699219	-1731.308959960938	376.9742736816406	-211.2950592041016	-1744.188842773438	161.5083618164062	-227.2646942138672	-1764.858276367188	417.6716003417969	-272.1998596191406	-1792.951416015625	395.4623107910156	-298.8958129882812	-1794.929077148438	415.2836608886719	-246.9723663330078	-1001.401489257812	74.2776107788086	-409.9910888671875
77	0.38	-1166.888671875	1471.209716796875	-506.400146484375	-1056.744384765625	1460.978759765625	-236.8072204589844	-1171.4619140625	1013.246398925781	-479.6093444824219	-1122.801147460938	1018.446105957031	-212.2796325683594	-1128.234252929688	961.5737915039062	-457.2007141113281	-992.9260864257812	102.126106262207	-375.80322265625	-1104.587890625	971.6888427734376	-229.9682006835938	-1251.490112304688	894.0438842773438	-496.6827392578125	-1261.362670898438	920.9307861328124	-161.0652465820312	-1286.650268554688	1024.177856445312	-338.9836120605469	-1106.706298828125	685.6740112304688	-512.4314575195312	-1053.654052734375	318.2972106933594	-454.3498840332031	-1168.422485351562	658.7069091796875	-470.9427185058594	-1051.445190429688	604.9337158203125	-486.5336303710938	-1756.408447265625	248.0587463378906	-175.4984130859375	-1076.337036132812	414.4866027832031	-468.835205078125	-1120.619995117188	575.4945068359375	-455.3417663574219	-1225.530151367188	675.3418579101562	-181.1928863525391	-759.6190795898438	196.5514373779297	-445.5768737792969	-1294.319213867188	707.990478515625	-164.8075714111328	-1266.632202148438	586.0776977539062	-204.4250030517578	-1341.84228515625	619.9021606445312	-184.6927795410156	-1055.647094726562	522.7429809570312	-474.3590087890625	-1358.181274414062	546.7363891601562	-191.4557495117188	-996.4102783203124	432.6604919433594	-476.1786804199219	-974.6453857421876	334.1808776855469	-467.5726013183594	-1453.169189453125	463.4192504882812	-188.9788665771484	-820.284423828125	142.9402160644531	-495.3129272460938	-1495.627075195312	539.6553955078125	-188.6401977539062	-967.6867065429688	82.25634765625	-357.7328491210938	-1544.843139648438	418.3382873535156	-197.5242156982422	-1578.12890625	491.09033203125	-200.3119659423828	-959.5343627929688	150.2060394287109	-445.6025695800781	-1715.366455078125	382.4163208007812	-211.4515380859375	-1730.1005859375	167.2306518554688	-229.5692443847656	-1743.670166015625	424.2245788574219	-273.2610473632812	-1772.951171875	402.6871948242188	-299.8706359863281	-1775.146118164062	422.1974792480469	-248.6922760009766	-980.3984985351562	70.98886108398438	-408.7850036621094
78	0.385	-1147.172119140625	1467.812622070312	-507.736328125	-1036.979736328125	1458.33544921875	-238.0817108154297	-1152.06201171875	1010.484924316406	-480.121337890625	-1103.4921875	1016.215515136719	-212.7426605224609	-1108.717895507812	959.4560546875	-458.3770446777344	-973.6764526367188	98.70120239257812	-374.6079711914062	-1084.946533203125	969.5673828125	-230.2508850097656	-1232.277221679688	890.9818115234375	-497.00244140625	-1240.528076171875	917.7489013671876	-161.3212890625	-1267.682006835938	1021.617004394531	-339.6983032226562	-1089.530029296875	681.78271484375	-513.7848510742188	-1034.898193359375	314.7357788085938	-453.9090270996094	-1151.114013671875	655.4429931640625	-470.50537109375	-1034.460693359375	601.3408203125	-487.427490234375	-1739.4326171875	253.8533477783203	-176.8147888183594	-1057.961669921875	411.0926513671875	-468.2377014160156	-1102.669555664062	572.302001953125	-453.9081726074219	-1203.195434570312	672.04052734375	-181.9848480224609	-741.3743896484375	194.0604248046875	-446.3076171875	-1272.012451171875	704.0984497070312	-165.2041320800781	-1243.464477539062	582.649658203125	-204.7209320068359	-1318.984375	615.4998168945312	-185.0908660888672	-1037.491943359375	519.9904174804688	-473.9382934570312	-1335.07373046875	542.31298828125	-192.6833038330078	-977.9781494140624	429.4622497558594	-475.9020690917969	-956.061279296875	330.9134216308594	-467.0167236328125	-1430.601318359375	461.5863647460938	-189.7906799316406	-802.3798217773438	140.2742614746094	-495.3706970214844	-1470.5859375	538.211181640625	-189.1193084716797	-948.1260375976562	79.0934829711914	-356.0678100585938	-1524.405029296875	418.9825439453125	-198.5767517089844	-1553.905517578125	490.8689880371094	-199.1345825195312	-941.2442626953124	146.837646484375	-444.838134765625	-1696.66845703125	386.7286071777344	-214.3244781494141	-1714.754028320312	173.1586456298828	-231.2015228271484	-1722.5625	430.3405151367188	-274.4699096679688	-1752.515869140625	409.7918395996094	-301.5782775878906	-1753.692260742188	428.8212585449219	-250.1297454833984	-961.5728759765624	68.07601165771484	-407.5097961425781
79	0.39	-1127.6455078125	1464.336791992188	-509.2954711914062	-1017.554016113281	1455.422241210938	-239.4559783935547	-1132.154418945312	1007.85693359375	-481.0567626953125	-1084.116577148438	1014.220886230469	-212.844482421875	-1088.867797851562	956.7364501953124	-458.1962585449219	-956.3801879882812	95.00130462646484	-373.4171142578125	-1065.139282226562	967.345458984375	-230.9384765625	-1212.327880859375	887.7720947265625	-497.1874084472656	-1220.273193359375	914.2408447265624	-161.0866088867188	-1248.315185546875	1018.811706542969	-340.2261352539062	-1072.143676757812	677.9276123046875	-514.161376953125	-1017.603393554688	311.2673950195312	-453.1071166992188	-1133.186645507812	652.0158081054688	-469.9631958007812	-1016.24853515625	598.3224487304688	-487.3871459960938	-1721.55615234375	260.3337097167969	-179.1353454589844	-1040.05615234375	407.7427368164062	-468.1558532714844	-1084.602416992188	569.29541015625	-453.3962707519531	-1181.013671875	668.6670532226562	-182.8425903320312	-724.5831909179688	190.8438110351562	-447.12744140625	-1249.97900390625	699.9623413085938	-165.63720703125	-1219.917846679688	578.5178833007812	-205.0662689208984	-1296.158325195312	610.7180786132812	-185.2923126220703	-1019.155029296875	516.7822265625	-473.9991455078125	-1310.732543945312	537.9241943359375	-192.3820037841797	-960.035400390625	425.8445129394531	-475.5980224609375	-938.4862060546876	327.2330627441406	-466.2706298828125	-1407.912475585938	458.94482421875	-190.2383728027344	-785.7599487304688	136.0815887451172	-494.9697265625	-1446.546875	536.59130859375	-189.7147521972656	-930.797119140625	75.9024429321289	-355.0610656738281	-1502.142822265625	418.8673706054688	-199.8983764648438	-1531.09521484375	491.9994506835938	-200.1497955322266	-924.204833984375	143.1323852539062	-443.7340087890625	-1674.4130859375	391.4369201660156	-214.7823638916016	-1699.456176757812	178.3573913574219	-233.2235565185547	-1700.59521484375	436.1530151367188	-276.1781005859375	-1730.604125976562	416.0672607421875	-302.89453125	-1730.475830078125	436.1747741699219	-252.2998809814453	-944.1762084960938	64.03561401367188	-405.867919921875
